<?xml version="1.0" standalone="no"?>
<!DOCTYPE svg PUBLIC "-//W3C//DTD SVG 20010904//EN"
 "http://www.w3.org/TR/2001/REC-SVG-20010904/DTD/svg10.dtd">
<svg version="1.0" xmlns="http://www.w3.org/2000/svg"
 width="684.000000pt" height="558.000000pt" viewBox="0 0 684.000000 558.000000"
 preserveAspectRatio="xMidYMid meet">

<g transform="translate(0.000000,558.000000) scale(0.100000,-0.100000)"
fill="#000000" stroke="none">
<path d="M3744 4935 c-12 -8 -70 -25 -130 -39 -60 -13 -165 -41 -234 -61 -69
-21 -143 -42 -165 -47 -66 -17 -214 -69 -315 -110 -52 -22 -123 -50 -157 -63
-177 -66 -541 -281 -713 -421 -197 -160 -371 -368 -420 -502 -11 -31 -25 -65
-30 -74 -6 -10 -10 -49 -10 -87 0 -53 5 -79 22 -108 57 -102 113 -132 239
-133 174 0 356 75 664 275 44 29 125 78 180 110 55 31 111 65 125 75 36 25
299 150 405 192 50 20 142 50 205 68 63 18 126 36 140 41 55 19 293 59 418 70
472 44 877 -166 1052 -547 48 -104 94 -253 111 -359 17 -108 17 -427 0 -540
-63 -409 -262 -740 -591 -981 -116 -84 -342 -202 -448 -233 -413 -120 -665 60
-622 445 11 104 48 253 90 364 74 195 90 240 104 303 24 104 21 237 -8 319
-30 84 -102 186 -169 240 -187 149 -398 125 -605 -68 -46 -42 -102 -103 -125
-136 -219 -307 -385 -554 -424 -632 -14 -28 -31 -58 -38 -66 -7 -8 -30 -46
-50 -85 -21 -38 -41 -74 -46 -80 -9 -12 -78 -168 -130 -295 -67 -160 -105
-364 -96 -504 19 -306 278 -555 678 -654 155 -39 211 -48 373 -63 339 -31 883
29 1255 137 118 35 338 111 356 124 6 4 73 42 150 85 533 296 943 655 1220
1070 87 131 255 452 255 488 0 9 11 46 24 84 29 80 51 168 72 278 9 44 24 113
35 154 21 81 25 235 9 306 -103 453 -133 542 -259 760 -92 161 -270 367 -427
496 -81 66 -272 184 -360 222 -152 66 -303 118 -416 143 -40 9 -87 25 -104 35
-30 18 -59 19 -550 19 -438 0 -523 -2 -540 -15z"/>
</g>
</svg>
